<svg xmlns="http://www.w3.org/2000/svg" xmlns:xlink="http://www.w3.org/1999/xlink" width="640" height="640">
<g><path fill="#fff" d="M342.3 512c-1.1 0-2-.7-2-1.8s.8-1.9 1.9-2c6.6-.2 13.3-.7 19.7-1.5 1.1-.1 2.1.7 2.2 1.8.1 1.1-.6 1.9-1.7 2.1-6.5.8-13.3 1.4-20.1 1.4zm-15 0c-2.5 0-5 0-7.4-.2-4.3-.3-8.5-.5-12.7-.9-1.1-.1-1.9-1-1.8-2.1.1-1.1 1.1-1.9 2.2-1.8 4.1.4 8.4.7 12.6 1 2.4.2 4.9.3 7.2.4 1.1 0 2 .8 1.9 1.9 0 1-.9 1.7-2 1.7zm-34.9-2.5h-.2c-6.8-.8-13.5-1.7-19.9-2.7-1.1-.2-1.8-1.2-1.7-2.3.2-1.1 1.2-1.8 2.3-1.7 6.4 1 13 1.9 19.7 2.7 1.1.1 1.9 1.1 1.8 2.2-.1 1.1-1 1.8-2 1.8zm84.6-1.1c-.9 0-1.8-.7-2-1.6-.2-1.1.5-2.1 1.6-2.3 6.5-1.3 12.9-2.9 19.2-4.8 1.1-.3 2.2.3 2.5 1.3.3 1.1-.3 2.2-1.3 2.5-6.4 1.9-13 3.6-19.6 4.9h-.4zm-119.2-4.2h-.4c-6.7-1.3-13.3-2.8-19.6-4.4-1.1-.3-1.7-1.4-1.4-2.4.3-1.1 1.4-1.7 2.4-1.4 6.2 1.6 12.8 3 19.4 4.3 1.1.2 1.8 1.3 1.6 2.3-.2.9-1 1.6-2 1.6zm152.8-5.4c-.8 0-1.6-.5-1.9-1.3-.4-1 .1-2.2 1.2-2.6 6.1-2.4 12.2-5 18.1-8 1-.5 2.2-.1 2.7.9s.1 2.2-.9 2.7c-6 3-12.2 5.8-18.5 8.2l-.7.1zm-186.8-3c-.2 0-.4 0-.6-.1-6.6-2-13-4.2-19.1-6.5-1-.4-1.6-1.5-1.2-2.6s1.5-1.6 2.6-1.2c6 2.3 12.3 4.4 18.8 6.4 1.1.3 1.7 1.4 1.3 2.5-.1 1-.9 1.5-1.8 1.5zm-32.8-12.1c-.3 0-.6-.1-.8-.2-6.3-2.8-12.3-5.9-18-9.1-1-.5-1.3-1.8-.8-2.7.5-1 1.8-1.3 2.7-.8 5.6 3.1 11.5 6.1 17.7 8.9 1 .5 1.5 1.6 1 2.6-.3.8-1 1.3-1.8 1.3zm251-.2c-.7 0-1.3-.3-1.7-1-.6-.9-.3-2.2.7-2.7 5.6-3.4 11.2-7.1 16.4-11 .9-.7 2.1-.5 2.8.4.7.9.5 2.1-.4 2.8-5.4 4-11 7.8-16.8 11.2-.3.2-.7.3-1 .3zm-281.6-16.7c-.4 0-.8-.1-1.1-.3-5.7-3.8-11.1-8-16.1-12.2-.8-.7-.9-2-.2-2.8s2-.9 2.8-.2c4.9 4.2 10.1 8.2 15.7 12 .9.6 1.2 1.9.5 2.8-.3.4-.9.7-1.6.7zm309.9-3.8c-.6 0-1.1-.2-1.5-.7-.7-.8-.6-2.1.2-2.8 5-4.3 9.8-8.9 14.4-13.6.8-.8 2-.8 2.8-.1.8.8.8 2 .1 2.8-4.7 4.9-9.6 9.5-14.6 13.9-.5.3-.9.5-1.4.5zm-336.6-18.6c-.5 0-1.1-.2-1.5-.6-4.7-4.9-9-10.2-12.9-15.6-.6-.9-.4-2.1.5-2.8.9-.6 2.1-.4 2.8.5 3.8 5.3 8 10.4 12.5 15.2.8.8.7 2.1-.1 2.8-.3.3-.8.5-1.3.5zm361.1-6.4c-.5 0-.9-.2-1.3-.5-.8-.7-1-2-.3-2.8 4.2-5 8.2-10.4 11.9-15.8.6-.9 1.9-1.1 2.8-.5s1.1 1.9.5 2.8c-3.8 5.5-7.9 11-12.2 16.1-.3.5-.9.7-1.4.7zm-381.8-21.7c-.7 0-1.4-.4-1.7-1-3.3-5.8-6.1-12-8.5-18.4-.4-1 .1-2.2 1.2-2.6 1-.4 2.2.1 2.6 1.2 2.3 6.2 5.1 12.2 8.3 17.8.5 1 .2 2.2-.8 2.7-.4.2-.8.3-1.1.3zm401.9-6.9c-.3 0-.7-.1-1-.3-1-.6-1.3-1.8-.7-2.7 3.3-5.6 6.5-11.5 9.3-17.5.5-1 1.7-1.4 2.7-.9 1 .5 1.4 1.7.9 2.7-2.9 6.1-6.1 12.1-9.5 17.8-.4.6-1 .9-1.7.9zm-414.9-25.4c-.9 0-1.7-.6-1.9-1.5-1.7-6.4-3-13-4-19.8-.2-1.1.6-2.1 1.7-2.3 1.1-.1 2.1.6 2.3 1.7.9 6.6 2.2 13.1 3.9 19.3.3 1.1-.3 2.2-1.4 2.4-.3.2-.4.2-.6.2zm430.3-6c-.2 0-.5 0-.7-.1-1-.4-1.5-1.6-1.1-2.6 2.4-6.1 4.6-12.4 6.6-18.7.3-1.1 1.4-1.7 2.5-1.3 1.1.3 1.7 1.4 1.3 2.5-1.9 6.4-4.2 12.8-6.7 19-.4.8-1.1 1.2-1.9 1.2zm-435.6-28.5c-1.1 0-1.9-.8-2-1.9-.2-3.6-.3-7.3-.3-11 0-3 .1-6.1.2-9.2 0-1.1 1-2 2.1-1.9 1.1 0 2 1 1.9 2.1-.1 3-.2 6-.2 9 0 3.6.1 7.3.3 10.8.1 1.1-.8 2-1.9 2.1h-.1zm446.1-4.8c-.2 0-.3 0-.5-.1-1.1-.3-1.7-1.3-1.5-2.4 1.5-6.4 2.8-12.9 3.7-19.5.2-1.1 1.2-1.8 2.3-1.7 1.1.2 1.8 1.2 1.7 2.3-1 6.6-2.3 13.3-3.8 19.8-.2.9-1 1.6-1.9 1.6zm-445.1-30.1h-.2c-1.1-.1-1.9-1.1-1.8-2.2.7-6.4 1.8-13.1 3.2-19.9.2-1.1 1.3-1.8 2.4-1.6 1.1.2 1.8 1.3 1.6 2.4-1.4 6.7-2.4 13.3-3.1 19.6-.2.9-1.1 1.7-2.1 1.7zm450.3-4.6c-1.2 0-2-.9-2-2v-3.2c0-5.4-.4-10.9-1.2-16.4-.2-1.1.6-2.1 1.7-2.3 1.1-.2 2.1.6 2.3 1.7.8 5.7 1.2 11.4 1.2 16.9v3.3c-.1 1.2-.9 2-2 2zm-443.7-29.8c-.2 0-.3 0-.5-.1-1.1-.3-1.7-1.4-1.4-2.4 1.7-6.6 3.7-13.1 5.9-19.3.4-1 1.5-1.6 2.5-1.2 1 .4 1.6 1.5 1.2 2.5-2.1 6.1-4.1 12.5-5.8 19-.2.9-1 1.5-1.9 1.5zm439.6-4.7c-.9 0-1.7-.6-1.9-1.5-1.6-6.2-3.7-12.5-6.3-18.7-.4-1 .1-2.2 1.1-2.6 1-.4 2.2.1 2.6 1.1 2.6 6.4 4.8 12.8 6.5 19.2.3 1.1-.4 2.2-1.4 2.4-.3.1-.4.1-.6.1zm-428.5-28.5c-.3 0-.5-.1-.8-.2-1-.4-1.5-1.6-1.1-2.6 2.7-6.4 5.6-12.5 8.8-18.2.5-1 1.7-1.3 2.7-.8s1.3 1.7.8 2.7c-3.1 5.6-5.9 11.6-8.6 17.8-.2.9-1 1.3-1.8 1.3zm415.8-4c-.7 0-1.4-.4-1.8-1.1-3-5.7-6.4-11.4-10.1-17-.6-.9-.4-2.2.6-2.8.9-.6 2.2-.4 2.8.6 3.8 5.7 7.3 11.5 10.3 17.4.5 1 .1 2.2-.8 2.7-.4.1-.7.2-1 .2zm-399.3-26.8c-.4 0-.8-.1-1.1-.3-.9-.6-1.2-1.9-.5-2.8 3.9-5.8 8.1-11.2 12.5-16 .7-.8 2-.9 2.8-.1.8.7.9 2 .1 2.8-4.2 4.6-8.3 9.8-12.1 15.5-.4.6-1.1.9-1.7.9zm380.3-2.6c-.6 0-1.2-.3-1.6-.8-4-5.1-8.3-10.2-12.9-15.1-.8-.8-.7-2.1.1-2.8.8-.8 2.1-.7 2.8.1 4.6 5 9.1 10.1 13.1 15.3.7.9.5 2.1-.3 2.8-.4.4-.8.5-1.2.5zm-23.6-25.8c-.5 0-1-.2-1.4-.5-4.8-4.5-9.8-8.9-14.9-13.1-.9-.7-1-2-.3-2.8.7-.9 2-1 2.8-.3 5.2 4.2 10.4 8.7 15.2 13.3.8.8.8 2 .1 2.8-.5.4-1 .6-1.5.6zm-27-22.2c-.4 0-.8-.1-1.2-.4-5.4-3.8-10.9-7.5-16.6-10.9-.9-.6-1.2-1.8-.7-2.7.6-.9 1.8-1.2 2.7-.7 5.7 3.5 11.4 7.2 16.8 11.1.9.6 1.1 1.9.5 2.8-.3.5-.9.8-1.5.8zm-251.6-17.1c-.7 0-1.4-.4-1.8-1.1-.5-1-.1-2.2.9-2.7 5.8-3 12-5.7 18.5-8.2 1-.4 2.2.1 2.6 1.2.4 1-.1 2.2-1.2 2.6-6.3 2.4-12.4 5.1-18.1 8-.3.1-.6.2-.9.2zm221.8-1.3c-.3 0-.6-.1-.9-.2-5.9-3.1-11.9-6-17.9-8.6-1-.4-1.5-1.6-1-2.6.4-1 1.6-1.5 2.6-1 6.1 2.6 12.2 5.5 18.2 8.7 1 .5 1.4 1.7.8 2.7-.4.6-1.1 1-1.8 1zm-189.3-11.6c-.9 0-1.7-.6-1.9-1.4-.3-1.1.3-2.2 1.3-2.5 6.1-1.8 12.7-3.5 19.5-5 1.1-.2 2.1.4 2.4 1.5.2 1.1-.4 2.1-1.5 2.4-6.7 1.5-13.2 3.1-19.2 4.9-.2.1-.4.1-.6.1zm157.3-2.5c-.2 0-.4 0-.7-.1-6.3-2.2-12.7-4.2-19-5.8-1.1-.3-1.7-1.4-1.4-2.4.3-1.1 1.4-1.7 2.4-1.4 6.4 1.6 12.9 3.6 19.3 5.9 1 .4 1.6 1.5 1.2 2.6-.2.7-1 1.2-1.8 1.2zm-123.2-5.3c-1 0-1.8-.7-2-1.7-.2-1.1.5-2.1 1.6-2.3 6.2-1.1 12.7-2.1 19.9-3 1.1-.1 2.1.6 2.2 1.7.1 1.1-.6 2.1-1.7 2.2-7.1.9-13.5 1.9-19.7 2.9-.1.2-.2.2-.3.2zm89.4-3.7h-.3c-6.6-1.2-13.2-2-19.6-2.4-1.1-.1-1.9-1-1.9-2.1.1-1.1 1-1.9 2.1-1.9 6.6.4 13.3 1.2 20.1 2.4 1.1.2 1.8 1.2 1.6 2.3-.2 1-1 1.7-2 1.7zm-54.8-1c-1 0-1.9-.8-2-1.8-.1-1.1.7-2.1 1.8-2.2l10.8-1.1c3-.3 6.2-.5 9.3-.6 1.1 0 2 .8 2.1 1.9s-.8 2-1.9 2.1c-3 .1-6.1.3-9 .6-3.6.3-7.2.7-10.7 1.1h-.4z"/><path fill="#fff" d="M191.9 135.5c-.5 1.9-.9 3.7-1.3 5.6-.4 1.9-.8 3.7-1.2 5.5l-1.2 5.5c-.4 1.9-.8 3.7-1.3 5.6-.2 1.8-.5 3.5-.9 5.2-.5 1.7-.8 3.5-1.1 5.3-.3 1.8-.7 3.5-1.1 5.3-.5 1.7-.8 3.5-1.1 5.3-.2.2-.3.4-.2.6.1.2.1.4.1.5 0 .1 0 .3.2.5.1.2.2.3.3.4 1 .9 1.8 1.8 2.2 2.7.5.9.9 1.9 1.4 2.9s.7 2.1.6 3.1c0 1-.1 2.2-.1 3.4-.4 1.6-1 3.1-1.7 4.5s-1.6 2.6-2.9 3.6c-1.3 1-2.6 1.8-4 2.4-1.4.6-3 .9-5 .9-.8.1-1.7.1-2.7-.1-1-.2-1.8-.4-2.6-.7-.8-.3-1.6-.7-2.5-1.3-.9-.6-1.6-1.2-2.1-1.8-1.5-1.5-2.5-3-3.1-4.6-.6-1.6-.9-3.2-1-4.9-.1-1.7.1-3.4.8-4.9.7-1.6 1.4-3 2.3-4.4.6-.4 1.1-.8 1.5-1.3.3-.5.8-.8 1.4-1.1.6-.2 1.1-.5 1.6-.9.4-.4 1.1-.5 1.9-.5-.1-.2 0-.3.3-.3.2 0 .3 0 .2-.2-.1-.2 0-.3.1-.3.2-.1.1-.2-.1-.5.4-.3.6-.8.6-1.3s.1-1 .2-1.4c.2-.4.3-.9.2-1.4 0-.5.1-1 .5-1.4-.7-.2-1.3-.4-1.7-.4-.4-.1-.9-.2-1.5-.3-.6-.1-1.1-.2-1.5-.3-.4-.1-1-.2-1.7-.4.2.1.2.1 0 .1-.2-.1-.3 0-.2.1 0 .1 0 .2-.2.1-.1 0-.2.1 0 .2-1.7 1.5-3.5 2.7-5.3 3.5-1.8.8-3.8 1.2-6 1-2.2-.2-4.1-.7-5.8-1.7-1.7-.9-3.3-2.4-4.8-4.4-.8-1.3-1.4-2.7-1.9-4.2-.5-1.6-.6-3.1-.3-4.6.3-1.5.6-3 1.2-4.5.5-1.5 1.4-2.8 2.6-3.7 1.1-1.4 2.5-2.5 4.2-3.2 1.7-.7 3.5-1.1 5.2-1.2 1.7-.1 3.5.1 5.3.8 1.8.7 3.3 1.6 4.5 2.9.6.4 1 .7 1.3 1.2.3.4.6.9 1 1.3s.6.9.8 1.5c.2.5.4 1.1.7 1.6-.1.1-.1.2 0 .3s.2.2.2.4c0 .1.3.2.7.2.5.1.9.2 1.2.3.3.1.7.1 1.2.2s.9.2 1.2.2c.3.1.7.2 1.2.3.1.1.2.1.3 0 .2-.1.2-.1.3-.1 0 0 .1-.1.2-.3.1-.1.1-.2 0-.3.4-1.4.7-2.7.9-4 .3-1.3.6-2.7.9-4.1.3-1.4.6-2.8.8-4 .2-1.3.6-2.6 1-4.1.1-.9.3-1.8.6-2.7.3-.9.7-1.7 1.1-2.5.4-.8.9-1.6 1.5-2.4.6-.8 1.2-1.5 1.8-2.1.8-.8 1.6-1.5 2.4-2 .8-.5 1.7-1 2.6-1.5 1-.5 1.9-.8 2.8-1.1.9-.3 1.9-.6 3.1-.8-.2.9-.4 1.6-.5 2.3-.1.7-.2 1.4-.4 2.2-.2.8-.3 1.5-.5 2.2-.1.7-.3 1.5-.5 2.2l.8.3zm-32.6 31.6c.7-.7 1.4-1.6 1.8-2.4.5-.9.8-1.8.9-2.9.1-1 0-2-.2-3-.2-.9-.7-1.9-1.5-2.7-.6-.7-1.4-1.4-2.3-1.9-.9-.6-1.9-.9-2.8-1-1-.1-2 0-3.1.2s-2.1.8-3 1.7c-.9.7-1.5 1.6-2 2.5-.4 1-.7 1.9-.8 2.9-.1 1 0 1.9.3 2.9s.7 1.8 1.3 2.6c.8 1 1.7 1.7 2.6 2.1 1 .4 2 .7 3 .8 1.1.1 2.1.1 3-.3 1.1-.3 2-.8 2.8-1.5zm19.2 29.7c1-.7 1.7-1.5 2.1-2.5.4-.9.6-1.9.8-2.9.1-1 0-2-.3-3s-.8-1.9-1.3-2.7c-.8-.8-1.7-1.5-2.5-2-.9-.5-1.8-.8-2.9-.9-1-.1-2 0-2.9.3-.9.3-1.9.8-2.9 1.5-.7.7-1.3 1.5-1.8 2.4-.5.9-.8 1.9-.9 2.9-.1 1 0 2 .3 3 .2 1 .8 1.9 1.6 2.8.5.8 1.3 1.4 2.3 1.9 1 .5 2 .8 2.9.8.9.1 1.9-.1 3-.3 1-.1 1.8-.6 2.5-1.3zm1.2-28.5c.3-.1.5-.3.6-.6.1-.3.2-.6.2-.8.1-.3 0-.6-.1-.9-.2-.3-.3-.6-.4-.8-.3-.3-.5-.5-.7-.6-.2-.1-.5-.2-.8-.2-.3-.1-.6 0-.8.1-.2.1-.5.2-.8.4-.2.3-.3.5-.5.7-.2.2-.2.5-.2.8v.9c0 .3.2.6.4.9.1.2.3.3.6.5s.5.3.8.2c.3 0 .6 0 1-.1.2 0 .5-.2.7-.5zm9.8 6.3c0-1.1.2-2.2.5-3.2s.5-2 .6-3c.1-1 .3-2 .6-3s.5-2 .6-3c2.5.5 5 .9 7.2 1.4 2.3.5 4.7 1 7.1 1.5 2.5.5 4.8 1 7.1 1.5s4.7 1 7.1 1.5c-.3.4-.6.8-.8 1.3-.2.4-.5.8-.9 1.1-.4.3-.7.7-1 1-.3.3-.7.7-1.2 1-1.1 1-2.3 1.9-3.7 2.5-1.4.7-2.8 1.2-4.2 1.6-1.4.4-2.8.6-4.4.6-1.6 0-3.1-.2-4.6-.6-.9-.2-1.7-.4-2.4-.6-.7-.1-1.5-.3-2.3-.5-.8-.2-1.6-.4-2.3-.5-.7-.1-1.5-.3-2.4-.6-.1.1-.2.1-.4 0 0-.1-.2-.2-.2 0z"/></g>
</svg>